# xmcd
#
# Track frame offsets: 
#        150
#        28345
#        52407
#        75745
#        99040
#        124698
#        147889
#        171421
#        201646
#        230579
#        255310
#        282892
#
# Disc length: 4073 seconds
#
# Revision: 1
# Processed by: cddbd v1.5.2PL0 Copyright (c) Steve Scherf et al.
# Submitted via: ExactAudioCopy v0.99pb3
#
DISCID=af0fe70c
DTITLE=John Irving - The Fourth Hand [CD01)
DYEAR=2001
DGENRE=Audio Book
TTITLE0=John Irving - The Fourth Hand D01 TR01
TTITLE1=John Irving - The Fourth Hand D01 TR02
TTITLE2=John Irving - The Fourth Hand D01 TR03
TTITLE3=John Irving - The Fourth Hand D01 TR04
TTITLE4=John Irving - The Fourth Hand D01 TR05
TTITLE5=John Irving - The Fourth Hand D01 TR06
TTITLE6=John Irving - The Fourth Hand D01 TR07
TTITLE7=John Irving - The Fourth Hand D01 TR08
TTITLE8=John Irving - The Fourth Hand D01 TR09
TTITLE9=John Irving - The Fourth Hand D01 TR10
TTITLE10=John Irving - The Fourth Hand D01 TR11
TTITLE11=John Irving - The Fourth Hand D01 TR12
EXTD=
EXTT0=
EXTT1=
EXTT2=
EXTT3=
EXTT4=
EXTT5=
EXTT6=
EXTT7=
EXTT8=
EXTT9=
EXTT10=
EXTT11=
PLAYORDER=
